<?xml version="1.0" encoding="utf-8"?>
<!-- Generator: Adobe Illustrator 19.0.0, SVG Export Plug-In . SVG Version: 6.00 Build 0)  -->
<svg version="1.1" id="Layer_1" xmlns="http://www.w3.org/2000/svg" xmlns:xlink="http://www.w3.org/1999/xlink" x="0px" y="0px"
	 viewBox="-199 201 100 100" style="enable-background:new -199 201 100 100;" xml:space="preserve">
<style type="text/css">
	.st0{fill:#3DA08D;stroke:#3DA08D;stroke-width:3;stroke-miterlimit:10;}
</style>
<path class="st0" d="M-149,211.8l9.6,28.2h31.1l-25.1,18.8l9.4,31.3L-149,271l-25.1,19.1l9.4-31.3l-25.1-18.8h31.1L-149,211.8
	 M-149,208.7c-1.3,0-2.5,0.9-3,2.1l-8.9,26.1h-28.9c-1.3,0-2.5,0.9-3,2.1c-0.4,1.3,0,2.7,1.1,3.5l23.3,17.5l-8.8,29.2
	c-0.4,1.3,0.1,2.7,1.2,3.5c0.5,0.4,1.2,0.6,1.8,0.6c0.7,0,1.3-0.2,1.9-0.6L-149,275l23.2,17.7c0.6,0.4,1.2,0.6,1.9,0.6
	c0.6,0,1.2-0.2,1.8-0.6c1.1-0.8,1.6-2.2,1.2-3.5l-8.8-29.2l23.3-17.5c1.1-0.8,1.5-2.2,1.1-3.5c-0.4-1.3-1.6-2.1-3-2.1h-28.9
	l-8.9-26.1C-146.5,209.6-147.7,208.7-149,208.7L-149,208.7z"/>
<polygon class="st0" points="-149.6,214 -140.5,242 -111.1,240.9 -135.1,258.6 -127.1,285.5 -149.3,268.9 -169.9,284.6 
	-163.4,258.6 -183,242.4 -158,242 "/>
</svg>
