<?xml version="1.0" encoding="utf-8"?>
<!-- Generator: Adobe Illustrator 19.0.0, SVG Export Plug-In . SVG Version: 6.00 Build 0)  -->
<svg version="1.1" id="Layer_1" xmlns="http://www.w3.org/2000/svg" xmlns:xlink="http://www.w3.org/1999/xlink" x="0px" y="0px"
	 viewBox="-199 201 100 100" style="enable-background:new -199 201 100 100;" xml:space="preserve">
<style type="text/css">
	.st0{fill:#3DA08D;stroke:#3DA08D;stroke-width:3;stroke-miterlimit:10;}
</style>
<g>
	<path class="st0" d="M-119.5,267.8c-4.3,0-8.1,2.2-10.3,5.4l-36.7-17.4c0.3-1.1,0.5-2.4,0.5-3.6c0-1.3-0.2-2.6-0.6-3.9l37-19.2
		c2.3,3.1,5.9,5.1,10.1,5.1c6.9,0,12.5-5.6,12.5-12.5c0-6.9-5.6-12.5-12.5-12.5c-6.9,0-12.5,5.6-12.5,12.5c0,1.4,0.2,2.7,0.6,3.9
		l-37.1,19.1c-2.3-3.1-5.9-5.1-10.1-5.1c-6.9,0-12.5,5.6-12.5,12.5c0,6.9,5.6,12.5,12.5,12.5c4.2,0,8-2.1,10.2-5.4l36.8,17.5
		c-0.3,1.1-0.5,2.3-0.5,3.5c0,6.9,5.6,12.5,12.5,12.5c6.9,0,12.5-5.6,12.5-12.5C-107,273.3-112.6,267.8-119.5,267.8z M-119.5,212.6
		c5,0,9.1,4.1,9.1,9.1c0,5-4.1,9.1-9.1,9.1c-5,0-9.1-4.1-9.1-9.1C-128.6,216.7-124.6,212.6-119.5,212.6z M-178.5,261.3
		c-5,0-9.1-4.1-9.1-9.1c0-5,4.1-9.1,9.1-9.1c5,0,9.1,4.1,9.1,9.1C-169.4,257.2-173.4,261.3-178.5,261.3z M-119.5,289.4
		c-5,0-9.1-4.1-9.1-9.1s4.1-9.1,9.1-9.1c5,0,9.1,4.1,9.1,9.1C-110.4,285.3-114.5,289.4-119.5,289.4z"/>
</g>
</svg>
